<svg id="NEW_HORIZONTAL_SEPARATED" data-name="NEW HORIZONTAL SEPARATED" xmlns="http://www.w3.org/2000/svg" viewBox="0 0 3575 1500"><defs><style>.cls-1{fill:#fff;}</style></defs><g id="RECREATING_S_copy_4" data-name="RECREATING S copy 4"><g id="S_cutted" data-name="S cutted"><path class="cls-1" d="M961,2179c0,165.5,476.36,54.59,824,130.71v259.47C1494.38,2452.79,712,2673.87,712,2179c0-270.11,198.61-429,715-429,137,0,257.18,16.74,358,40v256.72c-93.63-26-214-47-358-47C1427,1999.69,961,1995.71,961,2179Z" transform="translate(-712 -1750)"/><path class="cls-1" d="M1785,2893.74v292.5c-103.88,41.25-225.7,63.76-359,63.76-500.5,0-714-177.81-714-177.81l125.12-214.5S1032.75,3001,1426,3001C1575.11,3001,1701.6,2957.12,1785,2893.74Z" transform="translate(-712 -1750)"/></g></g><g id="RECREATING_S_copy_5" data-name="RECREATING S copy 5"><g id="S_cutted-2" data-name="S cutted"><path class="cls-1" d="M2212.5,2179c0,165.5,476.36,54.59,824,130.71v259.47c-290.62-116.39-1073,104.69-1073-390.18,0-270.11,198.61-429,715-429,137,0,257.18,16.74,358,40v256.72c-93.63-26-214-47-358-47C2678.5,1999.69,2212.5,1995.71,2212.5,2179Z" transform="translate(-712 -1750)"/><path class="cls-1" d="M3036.5,2893.74v292.5c-103.88,41.25-225.7,63.76-359,63.76-500.5,0-714-177.81-714-177.81l125.12-214.5S2284.25,3001,2677.5,3001C2826.61,3001,2953.1,2957.12,3036.5,2893.74Z" transform="translate(-712 -1750)"/></g></g><g id="RECREATING_A_reflected" data-name="RECREATING A reflected"><g id="A"><polygon class="cls-1" points="2503 1088.93 2740.12 1088.93 2594.11 1500 2842.44 1500 2988.44 1088.93 3575 1088.93 3575 840.93 3076.53 840.93 3218 442.63 3218 0 3126.89 0 2828.2 840.93 2503 840.93 2503 1088.93"/></g></g></svg>