<svg id="SSA_LOGO_transparent_stroke_" data-name="SSA_LOGO transparent stroke!" xmlns="http://www.w3.org/2000/svg" viewBox="0 0 1902.65 3159.6"><defs><style>.cls-1{fill:#fff;}.cls-2{opacity:0;}.cls-3{fill:none;stroke:#fff;stroke-width:36px;}</style></defs><g id="Layer_8_copy_15" data-name="Layer 8 copy 15"><path class="cls-1" d="M2553.5,2556.38q-26.34,1.47-53.5,1.46-27.37,0-53.76-.69L2500,2395.88Z" transform="translate(-1548.68 -920.2)"/><path class="cls-1" d="M2928.23,2444.52a612.7,612.7,0,0,1-64,35.63l-26-72c28.9,3.57,57.43,7.86,85.42,13A12.8,12.8,0,0,1,2928.23,2444.52Z" transform="translate(-1548.68 -920.2)"/><path class="cls-1" d="M1887.05,3213.39l-113.5,308.07c-136-55-199.06-107.52-199.06-107.52l162-277.65s27.1,19.72,81.32,46.27C1837.33,3192.15,1860.42,3202.62,1887.05,3213.39Z" transform="translate(-1548.68 -920.2)"/><path class="cls-1" d="M3425.51,2951.19c0,82.88-15.66,160.39-45,231.37-39.41,95.36-103.53,178.91-187.57,247.84-82.29,67.48-183.69,120.93-299.66,157.67-117.64,37.22-250.3,57.25-393.24,57.25-154.46,0-287.86-13.16-401.47-33.19l107-313c86.26,13.57,184.39,22.21,294.42,22.21,105.84,0,202.71-17,286.37-45.76,192.71-66.3,315.21-195.36,315.21-324.44,0-25.81-3.73-48.85-10.85-69.42-14.91-43.21-44.73-75.5-86-99.72,112.76-50.83,207.22-119.67,277.86-203.28,75.89,71,126.8,168.6,139.68,303Q3425.5,2914.94,3425.51,2951.19Z" transform="translate(-1548.68 -920.2)"/><path class="cls-1" d="M3425.51,2187.64c0,150.37-51.57,283.08-142.89,391.13-70.64,83.61-165.1,152.45-277.86,203.28q-13.53,6.09-27.43,11.85c-95,39.36-202.12,66.38-318.25,79.26a1447.12,1447.12,0,0,1-159.08,8.61c-56.2,0-109.62-1.74-160.32-4.93l57.38-172.12,49.18-147.57q26.39.69,53.76.69,27.15,0,53.5-1.46c118.72-6.53,224.51-34.58,310.69-76.23a590.65,590.65,0,0,0,89.7-53.09c93.32-67.43,147.69-153.42,147.69-239.42,0-21.26-2.52-40.62-7.4-58.28,110.65,42.29,169.37,81.42,169.37,81.42l130.67-224C3414.46,2044.11,3425.51,2110.59,3425.51,2187.64Z" transform="translate(-1548.68 -920.2)"/><path class="cls-1" d="M2121.39,2520.18l-59.57,165.13-52.42,145.38c-300.35-68.15-434.91-180.29-434.91-180.29l81-138.86,81-138.8S1864.76,2466.06,2121.39,2520.18Z" transform="translate(-1548.68 -920.2)"/><path class="cls-1" d="M3425.51,1933.12l-31.29,53.66-130.67,224s-58.72-39.13-169.37-81.42c-93.92-35.89-225.24-74-389.85-92.42A1831.74,1831.74,0,0,0,2500,2025.68s-91.24-3.91-202.64,6.5c-174.66,16.35-398.94,67.9-398.94,224.87,0,92.55,110.24,120.17,271.48,128.6l-48.51,134.53c-256.63-54.12-384.94-147.44-384.94-147.44l-81,138.8c-51.24-62.11-81-144.63-81-254.49,0-175.2,64.55-314.26,213.07-409.38,135.13-86.59,339.79-136.8,628.58-144.79q40.8-1.12,83.86-1.13,42.89,0,84,1.64c371,14.53,636.16,122.12,761,184.77C3397.82,1914.67,3425.51,1933.12,3425.51,1933.12Z" transform="translate(-1548.68 -920.2)"/><path class="cls-1" d="M3345,1888.16c-124.84-62.65-390-170.24-761-184.77l-27.51-76.25C2864.47,1632.69,3196.11,1666.45,3345,1888.16Z" transform="translate(-1548.68 -920.2)"/><path class="cls-1" d="M3425.51,1169.58l-162,277.65s-277.66-185.1-763.55-185.1c0,0-599-25.71-599,231.38,0,138.77,247.39,131.52,542.86,132.55l-27.71,76.82c-288.79,8-493.45,58.2-628.58,144.79-127.41-63.19-210.5-170.5-210.5-354.16,0-349.64,254.52-555.31,922.94-555.31C3078.44,938.2,3425.51,1169.58,3425.51,1169.58Z" transform="translate(-1548.68 -920.2)"/><path class="cls-1" d="M2584,1703.39q-41.14-1.62-84-1.64-43.08,0-83.86,1.13l27.71-76.82L2500,1470.37l56.53,156.77Z" transform="translate(-1548.68 -920.2)"/><path class="cls-1" d="M3101.58,2951.19c0,129.08-122.5,258.14-315.21,324.44l-31.85-93.07h-509l-39.9,116.62-107,313L1944.69,4061.8h-370.2l199.06-540.34,113.5-308.07,11.37-30.83h-80.65c-54.22-26.55-81.32-46.27-81.32-46.27l-27,46.27h-135V2881.77H1991l18.43-51.08,52.42-145.38,59.57-165.13,48.51-134.53,127.46-353.47c111.4-10.41,202.64-6.5,202.64-6.5a1831.74,1831.74,0,0,1,204.33,11.26l133.89,371.25,26,72c-86.18,41.65-192,69.7-310.69,76.23l-53.5-160.5-53.76,161.27-49.18,147.57-57.38,172.12-1.64,4.93H2662l-2.88-8.61c116.13-12.88,223.23-39.9,318.25-79.26l31.7,87.87h77.73a5.54,5.54,0,0,1,5.26,3.85C3098.3,2905.2,3101.58,2927,3101.58,2951.19Z" transform="translate(-1548.68 -920.2)"/><path class="cls-1" d="M2500,2881.77H2338l1.64-4.93C2390.38,2880,2443.8,2881.77,2500,2881.77Z" transform="translate(-1548.68 -920.2)"/><path class="cls-1" d="M2553.5,2556.38q-26.34,1.47-53.5,1.46-27.37,0-53.76-.69L2500,2395.88Z" transform="translate(-1548.68 -920.2)"/><path class="cls-1" d="M2662,2881.77H2500a1447.12,1447.12,0,0,0,159.08-8.61Z" transform="translate(-1548.68 -920.2)"/><path class="cls-1" d="M3192.9,3430.4l232.61,631.4h-370.2l-162.07-473.73C3009.21,3551.33,3110.61,3497.88,3192.9,3430.4Z" transform="translate(-1548.68 -920.2)"/><path class="cls-1" d="M3425.51,2881.77v69.42q0-36.26-3.21-69.42Z" transform="translate(-1548.68 -920.2)"/><path class="cls-1" d="M3380.47,3182.56c29.38-71,45-148.49,45-231.37v231.37Z" transform="translate(-1548.68 -920.2)"/><path class="cls-1" d="M2500,2881.77H2338l1.64-4.93C2390.38,2880,2443.8,2881.77,2500,2881.77Z" transform="translate(-1548.68 -920.2)"/><path class="cls-1" d="M2553.5,2556.38q-26.34,1.47-53.5,1.46-27.37,0-53.76-.69L2500,2395.88Z" transform="translate(-1548.68 -920.2)"/><path class="cls-1" d="M2662,2881.77H2500a1447.12,1447.12,0,0,0,159.08-8.61Z" transform="translate(-1548.68 -920.2)"/><path class="cls-1" d="M2553.5,2556.38q-26.34,1.47-53.5,1.46-27.37,0-53.76-.69L2500,2395.88Z" transform="translate(-1548.68 -920.2)"/><path class="cls-1" d="M2928.23,2444.52a612.7,612.7,0,0,1-64,35.63l-26-72c28.9,3.57,57.43,7.86,85.42,13A12.8,12.8,0,0,1,2928.23,2444.52Z" transform="translate(-1548.68 -920.2)"/><path class="cls-1" d="M1887.05,3213.39l-113.5,308.07c-136-55-199.06-107.52-199.06-107.52l162-277.65s27.1,19.72,81.32,46.27C1837.33,3192.15,1860.42,3202.62,1887.05,3213.39Z" transform="translate(-1548.68 -920.2)"/><path class="cls-1" d="M3425.51,2951.19c0,82.88-15.66,160.39-45,231.37-39.41,95.36-103.53,178.91-187.57,247.84-82.29,67.48-183.69,120.93-299.66,157.67-117.64,37.22-250.3,57.25-393.24,57.25-154.46,0-287.86-13.16-401.47-33.19l107-313c86.26,13.57,184.39,22.21,294.42,22.21,105.84,0,202.71-17,286.37-45.76,192.71-66.3,315.21-195.36,315.21-324.44,0-25.81-3.73-48.85-10.85-69.42-14.91-43.21-44.73-75.5-86-99.72,112.76-50.83,207.22-119.67,277.86-203.28,75.89,71,126.8,168.6,139.68,303Q3425.5,2914.94,3425.51,2951.19Z" transform="translate(-1548.68 -920.2)"/><path class="cls-1" d="M3425.51,2187.64c0,150.37-51.57,283.08-142.89,391.13-70.64,83.61-165.1,152.45-277.86,203.28q-13.53,6.09-27.43,11.85c-95,39.36-202.12,66.38-318.25,79.26a1447.12,1447.12,0,0,1-159.08,8.61c-56.2,0-109.62-1.74-160.32-4.93l57.38-172.12,49.18-147.57q26.39.69,53.76.69,27.15,0,53.5-1.46c118.72-6.53,224.51-34.58,310.69-76.23a590.65,590.65,0,0,0,89.7-53.09c93.32-67.43,147.69-153.42,147.69-239.42,0-21.26-2.52-40.62-7.4-58.28,110.65,42.29,169.37,81.42,169.37,81.42l130.67-224C3414.46,2044.11,3425.51,2110.59,3425.51,2187.64Z" transform="translate(-1548.68 -920.2)"/><path class="cls-1" d="M2121.39,2520.18l-59.57,165.13-52.42,145.38c-300.35-68.15-434.91-180.29-434.91-180.29l81-138.86,81-138.8S1864.76,2466.06,2121.39,2520.18Z" transform="translate(-1548.68 -920.2)"/><path class="cls-1" d="M3425.51,1933.12l-31.29,53.66-130.67,224s-58.72-39.13-169.37-81.42c-93.92-35.89-225.24-74-389.85-92.42A1831.74,1831.74,0,0,0,2500,2025.68s-91.24-3.91-202.64,6.5c-174.66,16.35-398.94,67.9-398.94,224.87,0,92.55,110.24,120.17,271.48,128.6l-48.51,134.53c-256.63-54.12-384.94-147.44-384.94-147.44l-81,138.8c-51.24-62.11-81-144.63-81-254.49,0-175.2,64.55-314.26,213.07-409.38,135.13-86.59,339.79-136.8,628.58-144.79q40.8-1.12,83.86-1.13,42.89,0,84,1.64c371,14.53,636.16,122.12,761,184.77C3397.82,1914.67,3425.51,1933.12,3425.51,1933.12Z" transform="translate(-1548.68 -920.2)"/><path class="cls-1" d="M3345,1888.16c-124.84-62.65-390-170.24-761-184.77l-27.51-76.25C2864.47,1632.69,3196.11,1666.45,3345,1888.16Z" transform="translate(-1548.68 -920.2)"/><path class="cls-1" d="M3425.51,1169.58l-162,277.65s-277.66-185.1-763.55-185.1c0,0-599-25.71-599,231.38,0,138.77,247.39,131.52,542.86,132.55l-27.71,76.82c-288.79,8-493.45,58.2-628.58,144.79-127.41-63.19-210.5-170.5-210.5-354.16,0-349.64,254.52-555.31,922.94-555.31C3078.44,938.2,3425.51,1169.58,3425.51,1169.58Z" transform="translate(-1548.68 -920.2)"/><path class="cls-1" d="M2584,1703.39q-41.14-1.62-84-1.64-43.08,0-83.86,1.13l27.71-76.82L2500,1470.37l56.53,156.77Z" transform="translate(-1548.68 -920.2)"/><path class="cls-1" d="M3101.58,2951.19c0,129.08-122.5,258.14-315.21,324.44l-31.85-93.07h-509l-39.9,116.62-107,313L1944.69,4061.8h-370.2l199.06-540.34,113.5-308.07,11.37-30.83h-80.65c-54.22-26.55-81.32-46.27-81.32-46.27l-27,46.27h-135V2881.77H1991l18.43-51.08,52.42-145.38,59.57-165.13,48.51-134.53,127.46-353.47c111.4-10.41,202.64-6.5,202.64-6.5a1831.74,1831.74,0,0,1,204.33,11.26l133.89,371.25,26,72c-86.18,41.65-192,69.7-310.69,76.23l-53.5-160.5-53.76,161.27-49.18,147.57-57.38,172.12-1.64,4.93H2662l-2.88-8.61c116.13-12.88,223.23-39.9,318.25-79.26l31.7,87.87h77.73a5.54,5.54,0,0,1,5.26,3.85C3098.3,2905.2,3101.58,2927,3101.58,2951.19Z" transform="translate(-1548.68 -920.2)"/><path class="cls-1" d="M2500,2881.77H2338l1.64-4.93C2390.38,2880,2443.8,2881.77,2500,2881.77Z" transform="translate(-1548.68 -920.2)"/><path class="cls-1" d="M2553.5,2556.38q-26.34,1.47-53.5,1.46-27.37,0-53.76-.69L2500,2395.88Z" transform="translate(-1548.68 -920.2)"/><path class="cls-1" d="M2662,2881.77H2500a1447.12,1447.12,0,0,0,159.08-8.61Z" transform="translate(-1548.68 -920.2)"/><path class="cls-1" d="M3192.9,3430.4l232.61,631.4h-370.2l-162.07-473.73C3009.21,3551.33,3110.61,3497.88,3192.9,3430.4Z" transform="translate(-1548.68 -920.2)"/><path class="cls-1" d="M3425.51,2881.77v69.42q0-36.26-3.21-69.42Z" transform="translate(-1548.68 -920.2)"/><path class="cls-1" d="M3380.47,3182.56c29.38-71,45-148.49,45-231.37v231.37Z" transform="translate(-1548.68 -920.2)"/><path class="cls-1" d="M2500,2881.77H2338l1.64-4.93C2390.38,2880,2443.8,2881.77,2500,2881.77Z" transform="translate(-1548.68 -920.2)"/><path class="cls-1" d="M2553.5,2556.38q-26.34,1.47-53.5,1.46-27.37,0-53.76-.69L2500,2395.88Z" transform="translate(-1548.68 -920.2)"/><path class="cls-1" d="M2662,2881.77H2500a1447.12,1447.12,0,0,0,159.08-8.61Z" transform="translate(-1548.68 -920.2)"/><g class="cls-2"><path class="cls-3" d="M2553.5,2556.38q-26.34,1.47-53.5,1.46-27.37,0-53.76-.69L2500,2395.88Z" transform="translate(-1548.68 -920.2)"/><path class="cls-3" d="M2928.23,2444.52a612.7,612.7,0,0,1-64,35.63l-26-72c28.9,3.57,57.43,7.86,85.42,13A12.8,12.8,0,0,1,2928.23,2444.52Z" transform="translate(-1548.68 -920.2)"/><path class="cls-3" d="M1887.05,3213.39l-113.5,308.07c-136-55-199.06-107.52-199.06-107.52l162-277.65s27.1,19.72,81.32,46.27C1837.33,3192.15,1860.42,3202.62,1887.05,3213.39Z" transform="translate(-1548.68 -920.2)"/><path class="cls-3" d="M3425.51,2951.19c0,82.88-15.66,160.39-45,231.37-39.41,95.36-103.53,178.91-187.57,247.84-82.29,67.48-183.69,120.93-299.66,157.67-117.64,37.22-250.3,57.25-393.24,57.25-154.46,0-287.86-13.16-401.47-33.19l107-313c86.26,13.57,184.39,22.21,294.42,22.21,105.84,0,202.71-17,286.37-45.76,192.71-66.3,315.21-195.36,315.21-324.44,0-25.81-3.73-48.85-10.85-69.42-14.91-43.21-44.73-75.5-86-99.72,112.76-50.83,207.22-119.67,277.86-203.28,75.89,71,126.8,168.6,139.68,303Q3425.5,2914.94,3425.51,2951.19Z" transform="translate(-1548.68 -920.2)"/><path class="cls-3" d="M3425.51,2187.64c0,150.37-51.57,283.08-142.89,391.13-70.64,83.61-165.1,152.45-277.86,203.28q-13.53,6.09-27.43,11.85c-95,39.36-202.12,66.38-318.25,79.26a1447.12,1447.12,0,0,1-159.08,8.61c-56.2,0-109.62-1.74-160.32-4.93l57.38-172.12,49.18-147.57q26.39.69,53.76.69,27.15,0,53.5-1.46c118.72-6.53,224.51-34.58,310.69-76.23a590.65,590.65,0,0,0,89.7-53.09c93.32-67.43,147.69-153.42,147.69-239.42,0-21.26-2.52-40.62-7.4-58.28,110.65,42.29,169.37,81.42,169.37,81.42l130.67-224C3414.46,2044.11,3425.51,2110.59,3425.51,2187.64Z" transform="translate(-1548.68 -920.2)"/><path class="cls-3" d="M2121.39,2520.18l-59.57,165.13-52.42,145.38c-300.35-68.15-434.91-180.29-434.91-180.29l81-138.86,81-138.8S1864.76,2466.06,2121.39,2520.18Z" transform="translate(-1548.68 -920.2)"/><path class="cls-3" d="M3425.51,1933.12l-31.29,53.66-130.67,224s-58.72-39.13-169.37-81.42c-93.92-35.89-225.24-74-389.85-92.42A1831.74,1831.74,0,0,0,2500,2025.68s-91.24-3.91-202.64,6.5c-174.66,16.35-398.94,67.9-398.94,224.87,0,92.55,110.24,120.17,271.48,128.6l-48.51,134.53c-256.63-54.12-384.94-147.44-384.94-147.44l-81,138.8c-51.24-62.11-81-144.63-81-254.49,0-175.2,64.55-314.26,213.07-409.38,135.13-86.59,339.79-136.8,628.58-144.79q40.8-1.12,83.86-1.13,42.89,0,84,1.64c371,14.53,636.16,122.12,761,184.77C3397.82,1914.67,3425.51,1933.12,3425.51,1933.12Z" transform="translate(-1548.68 -920.2)"/><path class="cls-3" d="M3345,1888.16c-124.84-62.65-390-170.24-761-184.77l-27.51-76.25C2864.47,1632.69,3196.11,1666.45,3345,1888.16Z" transform="translate(-1548.68 -920.2)"/><path class="cls-3" d="M3425.51,1169.58l-162,277.65s-277.66-185.1-763.55-185.1c0,0-599-25.71-599,231.38,0,138.77,247.39,131.52,542.86,132.55l-27.71,76.82c-288.79,8-493.45,58.2-628.58,144.79-127.41-63.19-210.5-170.5-210.5-354.16,0-349.64,254.52-555.31,922.94-555.31C3078.44,938.2,3425.51,1169.58,3425.51,1169.58Z" transform="translate(-1548.68 -920.2)"/><path class="cls-3" d="M2584,1703.39q-41.14-1.62-84-1.64-43.08,0-83.86,1.13l27.71-76.82L2500,1470.37l56.53,156.77Z" transform="translate(-1548.68 -920.2)"/><path class="cls-3" d="M3101.58,2951.19c0,129.08-122.5,258.14-315.21,324.44l-31.85-93.07h-509l-39.9,116.62-107,313L1944.69,4061.8h-370.2l199.06-540.34,113.5-308.07,11.37-30.83h-80.65c-54.22-26.55-81.32-46.27-81.32-46.27l-27,46.27h-135V2881.77H1991l18.43-51.08,52.42-145.38,59.57-165.13,48.51-134.53,127.46-353.47c111.4-10.41,202.64-6.5,202.64-6.5a1831.74,1831.74,0,0,1,204.33,11.26l133.89,371.25,26,72c-86.18,41.65-192,69.7-310.69,76.23l-53.5-160.5-53.76,161.27-49.18,147.57-57.38,172.12-1.64,4.93H2662l-2.88-8.61c116.13-12.88,223.23-39.9,318.25-79.26l31.7,87.87h77.73a5.54,5.54,0,0,1,5.26,3.85C3098.3,2905.2,3101.58,2927,3101.58,2951.19Z" transform="translate(-1548.68 -920.2)"/><path class="cls-3" d="M2500,2881.77H2338l1.64-4.93C2390.38,2880,2443.8,2881.77,2500,2881.77Z" transform="translate(-1548.68 -920.2)"/><path class="cls-3" d="M2553.5,2556.38q-26.34,1.47-53.5,1.46-27.37,0-53.76-.69L2500,2395.88Z" transform="translate(-1548.68 -920.2)"/><path class="cls-3" d="M2662,2881.77H2500a1447.12,1447.12,0,0,0,159.08-8.61Z" transform="translate(-1548.68 -920.2)"/><path class="cls-3" d="M3192.9,3430.4l232.61,631.4h-370.2l-162.07-473.73C3009.21,3551.33,3110.61,3497.88,3192.9,3430.4Z" transform="translate(-1548.68 -920.2)"/><path class="cls-3" d="M3425.51,2881.77v69.42q0-36.26-3.21-69.42Z" transform="translate(-1548.68 -920.2)"/><path class="cls-3" d="M3380.47,3182.56c29.38-71,45-148.49,45-231.37v231.37Z" transform="translate(-1548.68 -920.2)"/><path class="cls-3" d="M2500,2881.77H2338l1.64-4.93C2390.38,2880,2443.8,2881.77,2500,2881.77Z" transform="translate(-1548.68 -920.2)"/><path class="cls-3" d="M2553.5,2556.38q-26.34,1.47-53.5,1.46-27.37,0-53.76-.69L2500,2395.88Z" transform="translate(-1548.68 -920.2)"/><path class="cls-3" d="M2662,2881.77H2500a1447.12,1447.12,0,0,0,159.08-8.61Z" transform="translate(-1548.68 -920.2)"/></g></g></svg>