<svg id="SSA_LOGO2_written_" data-name="SSA LOGO2 (written)" xmlns="http://www.w3.org/2000/svg" viewBox="0 0 3045.07 1079.2"><defs><style>.cls-1{fill:none;stroke:#fff;stroke-linecap:round;stroke-miterlimit:10;stroke-width:70px;}</style></defs><path class="cls-1" d="M1873.3,1742.51c255.38-255.38-217.52-390.92-630.17,21.73-423.73,423.74,873.76-140.68,696.16,384.2-142,419.81-1073.77,449.75-804.81,180.78C1527.89,1935.81,2331,2142,2799,1674c162-162-281.15-326.15-686.68,79.38-566,565.95,943.94,176.36,659.68,460.62-334.47,334.47-1116.24,396.24-774,54,274.5-274.5,1890-774,1332-774-325.95,0,86.74,995.59,0,990-195.16-12.59,540-1014.89,540-765,0,336.81-2966,275.58-2975.07,416.53" transform="translate(-859.93 -1459)"/></svg>