<svg id="Layer_1" data-name="Layer 1" xmlns="http://www.w3.org/2000/svg" viewBox="0 0 166.15625 38.00977"><defs><style>.cls-1{fill:#fff;}</style></defs><path class="cls-1" d="M175.83594,249.23242H181.041a18.86118,18.86118,0,0,1,5.30664.67285,10.89139,10.89139,0,0,1,3.834,1.92969,8.102,8.102,0,0,1,2.33594,3.02149,9.532,9.532,0,0,1,.78711,3.92285,9.82514,9.82514,0,0,1-1.752,5.89062,11.05273,11.05273,0,0,1-4.748,3.71973,17.01671,17.01671,0,0,1-6.75391,1.28223,16.69484,16.69484,0,0,1-4.62109-.64747,13.22493,13.22493,0,0,1-4.0752-1.94238,9.63578,9.63578,0,0,1-2.90722-3.31348,9.86039,9.86039,0,0,1-1.0918-4.76074h7.71875a4.04271,4.04271,0,0,0,.67285,2.28516,4.74312,4.74312,0,0,0,1.84082,1.6123,5.78014,5.78014,0,0,0,2.666.59668,5.512,5.512,0,0,0,3.94824-1.3584,4.595,4.595,0,0,0,1.43457-3.49121,5.98438,5.98438,0,0,0-.71094-3.11035,4.10269,4.10269,0,0,0-2.00586-1.71387,8.19554,8.19554,0,0,0-3.123-.5332h-3.96094Zm3.96094-1.92969a6.334,6.334,0,0,0,2.94531-.60937,3.94326,3.94326,0,0,0,1.73926-1.72656,5.67023,5.67023,0,0,0,.57128-2.61524,4.99819,4.99819,0,0,0-.5205-2.31054,3.83473,3.83473,0,0,0-1.58692-1.61231,5.46437,5.46437,0,0,0-2.6914-.59668,5.71834,5.71834,0,0,0-2.33594.48242,4.33887,4.33887,0,0,0-1.75195,1.3584,3.33934,3.33934,0,0,0-.66016,2.06934h-7.668a8.79472,8.79472,0,0,1,1.65039-5.332,10.83739,10.83739,0,0,1,4.43067-3.50391,14.84793,14.84793,0,0,1,6.13183-1.24414,16.96982,16.96982,0,0,1,6.63965,1.206,9.89537,9.89537,0,0,1,4.45605,3.55469,10.06947,10.06947,0,0,1,1.59961,5.80176,7.628,7.628,0,0,1-.82519,3.45312,9.335,9.335,0,0,1-2.34863,2.94532,11.55951,11.55951,0,0,1-3.68165,2.05664,14.50838,14.50838,0,0,1-4.8496.76172h-5.20508v-4.13868Z" transform="translate(-167.35547 -231.66211)"/><path class="cls-1" d="M206.91406,269.16406h-7.998V232.19531h7.998Zm16.25-30.51953H204.78125v-6.44922h18.38281ZM221.41211,254.209H204.78125v-6.42382h16.63086Z" transform="translate(-167.35547 -231.66211)"/><path class="cls-1" d="M235.85938,269.16406h-7.97266V232.19531h7.97266Z" transform="translate(-167.35547 -231.66211)"/><path class="cls-1" d="M250.6875,269.16406h-7.99805V232.19531h7.99805Zm16.25-30.51953H248.55469v-6.44922H266.9375Zm-1.752,15.56445H248.55469v-6.42382h16.63086Z" transform="translate(-167.35547 -231.66211)"/><path class="cls-1" d="M299.76758,238.64453H269.502v-6.44922h30.26563Zm-11.22266,30.51953h-7.97265V232.19531h7.97265Z" transform="translate(-167.35547 -231.66211)"/><path class="cls-1" d="M317.38867,248.59766l7.43945-16.40235h8.6836L321.45117,255.7832v13.38086h-8.09961V255.7832l-12.08594-23.58789h8.709Z" transform="translate(-167.35547 -231.66211)"/></svg>