<svg id="AMAZON_MUSIC" data-name="AMAZON MUSIC" xmlns="http://www.w3.org/2000/svg" viewBox="0 0 403 403"><defs><style>.cls-1{fill:none;stroke:#fff;stroke-miterlimit:10;stroke-width:15px;}.cls-2,.cls-3{fill:#fff;}.cls-3{font-size:127px;font-family:MyriadPro-Regular, Myriad Pro;}</style></defs><g id="Layer_21" data-name="Layer 21"><rect class="cls-1" x="7.5" y="7.5" width="388" height="388" rx="80.01913"/><path class="cls-2" d="M103.71032,308.72241c19.85232,12.87421,41.52947,22.28568,63.81493,29.219A292.21875,292.21875,0,0,0,236.012,350.43912a293.36743,293.36743,0,0,0,69.24864-4.21033c5.73373-.98422,11.40573-2.28506,17.10666-3.56787,2.81412-.76151,5.656-1.455,8.49441-2.18454,2.82377-.7706,5.62207-1.63809,8.45121-2.44186,11.25549-3.3946,22.36285-7.46531,33.57443-11.8021l.06476-.025a4.35375,4.35375,0,0,1,4.16058,7.56021,191.888,191.888,0,0,1-32.11536,19.02121A202.90082,202.90082,0,0,1,309.616,365.6402a228.29886,228.29886,0,0,1-75.07529,6.78464,242.28478,242.28478,0,0,1-73.2776-16.9495,217.892,217.892,0,0,1-33.529-16.97574c-2.6773-1.6196-5.25374-3.42749-7.85561-5.15521-2.53615-1.8562-5.108-3.62549-7.54206-5.61273a142.313,142.313,0,0,1-14.04672-12.45407,4.27272,4.27272,0,0,1,5.34807-6.6033Z" transform="translate(-48.5 -48.5)"/><path class="cls-2" d="M350.43881,310.92545c7.719-2.29609,15.39258-4.80857,23.60285-6.60569l1.54092-.34237,1.58069-.27094c1.06531-.16489,2.09076-.42425,3.19861-.56238,1.10037-.14975,2.17779-.38095,3.31991-.52227,1.16092-.12595,2.2977-.30661,3.51972-.37433l1.87-.05674.945-.01547c.32458.01285.66467.0521.99853.07978.67069.06393,1.34977.12622,2.02793.21362a19.92571,19.92571,0,0,1,2.14041.51282l1.08.313c.36044.12183.74258.31595,1.11261.47892a17.855,17.855,0,0,1,2.21057,1.15554c.73547.49674,1.44082,1.05146,2.1365,1.61261a22.57612,22.57612,0,0,1,1.88468,2.04578,15.14626,15.14626,0,0,1,2.53,4.79926l.38294,1.25338c.08966.40882.13821.8013.20224,1.20295.06259.39883.10471.80065.14886,1.19955l.06067.59778c.00663.18878-.00259.37192-.00421.55774-.0087.74008-.04834,1.47732-.10232,2.20508-.08841.69342-.20905,1.35125-.33719,2.01788a14.52854,14.52854,0,0,1-.4657,1.89545c-.17972.60333-.3483,1.21646-.54468,1.79562a86.62844,86.62844,0,0,1-5.299,12.20279c-4.00162,7.38965-8.47427,14.06918-12.92224,20.736a3.17266,3.17266,0,0,1-5.52509-3.07879l.011-.02289c1.64594-3.60135,3.27625-7.193,4.72177-10.82953a114.06023,114.06023,0,0,0,3.86426-10.88779c.26422-.90356.5318-1.80459.74158-2.69836.236-.89585.44717-1.78482.61142-2.661a19.72669,19.72669,0,0,0,.47851-5.106c-.031-.39835-.09323-.7728-.13418-1.15149a5.11468,5.11468,0,0,0-.18845-1.06491c-.093-.3244-.14355-.658-.22543-.95526a5.90626,5.90626,0,0,1-.29331-.765c-.40259-.92364-.68881-1.19818-.73645-1.40741-.04919-.04019-.04492-.106-.0683-.19552a.50547.50547,0,0,1-.1694-.269c-.058-.12073-.2453-.20813-.34286-.36368-.0676-.06885-.09888-.158-.1959-.22568l-.31045-.2171c-.22257-.13947-.38211-.34525-.65582-.498-.2862-.14545-.57145-.316-.86512-.48489-.14935-.08322-.28811-.17829-.45031-.25714l-.53034-.20978-1.08075-.44534c-.74887-.28382-1.60254-.45649-2.42132-.69754-.8404-.19577-1.74683-.28837-2.62955-.40552a21.81494,21.81494,0,0,0-2.73547-.12317l-1.38367-.00574-1.40662.069a98.37589,98.37589,0,0,0-22.7756,3.98129l-.00781.00229a3.72874,3.72874,0,0,1-2.11457-7.15139Z" transform="translate(-48.5 -48.5)"/><text class="cls-3" transform="translate(44.60205 230.5957)">music</text></g></svg>