<svg id="APPLEMUSIC" xmlns="http://www.w3.org/2000/svg" viewBox="0 0 403 403"><defs><style>.cls-1{fill:none;}.cls-1,.cls-2{stroke:#fff;stroke-miterlimit:10;stroke-width:15px;}.cls-2{fill:#fff;}</style></defs><g id="Layer_17" data-name="Layer 17"><rect class="cls-1" x="7.5" y="7.5" width="388" height="388" rx="80.01913"/><line class="cls-1" x1="152" y1="267" x2="152" y2="151.52"/><line class="cls-1" x1="283" y1="241" x2="283" y2="124.41"/><path class="cls-2" d="M331.5,139.332V172.91l-131,27.11V160.2336a15,15,0,0,1,11.96021-14.68877l101-20.90159A15,15,0,0,1,331.5,139.332Z" transform="translate(-48.5 -48.5)"/><path class="cls-2" d="M200.5,315.5v25c0,46-59,36-59,8C141.5,319.5,200.5,315.5,200.5,315.5Z" transform="translate(-48.5 -48.5)"/><path class="cls-2" d="M331.5,289.5v25c0,46.02-59,36.04-59,8C272.5,293.5,331.5,289.5,331.5,289.5Z" transform="translate(-48.5 -48.5)"/><path class="cls-1" d="M253.5,187.5l-38,10c-7,2-15,8-15,19v35" transform="translate(-48.5 -48.5)"/><path class="cls-1" d="M277.5,183.5l32.71694-6.29172C317.5,175.5,327.0033,178.8571,330.14062,186.67187A19.50806,19.50806,0,0,1,331.5,194v35" transform="translate(-48.5 -48.5)"/></g></svg>