<svg id="Layer_1" data-name="Layer 1" xmlns="http://www.w3.org/2000/svg" viewBox="0 0 307.02344 37.98438"><defs><style>.cls-1{fill:#fff;}</style></defs><path class="cls-1" d="M105.83594,269.16406h-7.998V232.19531h7.998Zm7.541-18.48437-8.53125,9.21679-1.44726-7.76953,5.66211-7.998,9.06445-11.9336h9.80078Zm-5.10351,1.65039,5.916-5.002,14.041,21.83594h-9.4707Z" transform="translate(-97.83789 -231.6875)"/><path class="cls-1" d="M139.377,269.16406H131.4043V232.19531H139.377Z" transform="translate(-97.83789 -231.6875)"/><path class="cls-1" d="M154.20508,269.16406H146.207V232.19531h7.99805Zm-4.54492,0,.05078-6.42383h7.94726a8.83418,8.83418,0,0,0,4.91309-1.29492,7.919,7.919,0,0,0,3.00879-3.80859,16.51911,16.51911,0,0,0,1.01562-6.16992v-1.625a16.39937,16.39937,0,0,0-1.01562-6.16992,7.80986,7.80986,0,0,0-2.9961-3.75782,8.8549,8.8549,0,0,0-4.875-1.26953h-8.20117v-6.44922H157.709a17.16029,17.16029,0,0,1,8.82325,2.23438,15.754,15.754,0,0,1,5.97949,6.208,19.09859,19.09859,0,0,1,2.1582,9.25488v1.57422a19.17094,19.17094,0,0,1-2.1582,9.26758,15.64575,15.64575,0,0,1-5.97949,6.208,17.333,17.333,0,0,1-8.874,2.22168Z" transform="translate(-97.83789 -231.6875)"/><path class="cls-1" d="M210.59766,251.44141a21.91135,21.91135,0,0,1-2.00586,9.76269,14.89656,14.89656,0,0,1-5.56055,6.27149,15.33333,15.33333,0,0,1-8.22656,2.19629,15.5272,15.5272,0,0,1-8.26465-2.19629,14.97046,14.97046,0,0,1-5.624-6.27149,21.67014,21.67014,0,0,1-2.03125-9.76269v-1.498a21.79147,21.79147,0,0,1,2.01855-9.7627,15.00709,15.00709,0,0,1,5.59863-6.28418,16.49394,16.49394,0,0,1,16.49121,0,15.03871,15.03871,0,0,1,5.58594,6.28418,21.79147,21.79147,0,0,1,2.01856,9.7627Zm-8.04883-1.54883a19.39222,19.39222,0,0,0-.91406-6.39844,8.105,8.105,0,0,0-2.666-3.91016,7.42825,7.42825,0,0,0-8.45508,0,8.1068,8.1068,0,0,0-2.62793,3.91016,19.64,19.64,0,0,0-.90136,6.39844v1.54883a19.41638,19.41638,0,0,0,.91406,6.38574,8.30636,8.30636,0,0,0,2.65332,3.94824,6.73846,6.73846,0,0,0,4.25293,1.3457,6.6605,6.6605,0,0,0,4.20215-1.3457,8.23444,8.23444,0,0,0,2.64062-3.94824,19.67771,19.67771,0,0,0,.90137-6.38574Z" transform="translate(-97.83789 -231.6875)"/><path class="cls-1" d="M244.13867,232.19531v24.29883a13.47289,13.47289,0,0,1-1.82812,7.23633,11.5329,11.5329,0,0,1-5.04,4.44336,17.27662,17.27662,0,0,1-7.376,1.498,17.51051,17.51051,0,0,1-7.42676-1.498,11.42515,11.42515,0,0,1-5.05273-4.44336,13.5448,13.5448,0,0,1-1.81543-7.23633V232.19531h7.998v24.29883a8.74188,8.74188,0,0,0,.73632,3.87207,4.65654,4.65654,0,0,0,2.15821,2.18359,7.64413,7.64413,0,0,0,3.40234.69825,7.54548,7.54548,0,0,0,3.40235-.69825,4.62275,4.62275,0,0,0,2.12011-2.18359,8.87914,8.87914,0,0,0,.72363-3.87207V232.19531Z" transform="translate(-97.83789 -231.6875)"/><path class="cls-1" d="M255.41211,253.168l-.05078-5.56055h7.89648a7.23,7.23,0,0,0,4.46875-1.12988,3.89161,3.89161,0,0,0,1.44727-3.2627,4.09572,4.09572,0,0,0-1.42188-3.5039,7.54284,7.54284,0,0,0-4.49414-1.06641h-5.07812v30.51953h-7.99805V232.19531h13.07617q6.52589,0,10.207,2.48828,3.68117,2.48877,3.68164,7.668a8.99188,8.99188,0,0,1-1.02832,4.22754,7.70711,7.70711,0,0,1-3.26269,3.18652,12.68,12.68,0,0,1-5.81445,1.29493l-2.23438,2.10742Zm-2.18359,15.99609,3.09765-6.42383h8.15039a5.764,5.764,0,0,0,4.18946-1.30761,4.40676,4.40676,0,0,0,1.32031-3.2627,6.14142,6.14142,0,0,0-.53321-2.666,3.77173,3.77173,0,0,0-1.66308-1.72657,6.28553,6.28553,0,0,0-2.9834-.60937h-7.41406l.05078-5.56055h9.166l1.85351,2.209a10.46657,10.46657,0,0,1,5.50977,1.12988,7.27555,7.27555,0,0,1,3.02148,3.16113,9.4408,9.4408,0,0,1,.93945,4.13867q0,5.40821-3.47851,8.16309-3.479,2.75536-9.97852,2.75488Z" transform="translate(-97.83789 -231.6875)"/><path class="cls-1" d="M291.44141,269.16406h-7.97266V232.19531h7.97266Zm16.02148,0H288.90234v-6.42383h18.56055Z" transform="translate(-97.83789 -231.6875)"/><path class="cls-1" d="M319.65039,269.16406h-7.99805V232.19531h7.99805Zm16.93555-30.51953h-19.5v-6.44922h19.5Zm-2.51367,14.625H317.08594v-6.2207h16.98633Zm2.53906,15.89453H317.08594v-6.42383h19.52539Z" transform="translate(-97.83789 -231.6875)"/><path class="cls-1" d="M359.99609,259.41406a4.2084,4.2084,0,0,0-.5332-2.1582,5.14233,5.14233,0,0,0-2.04394-1.73926,26.69,26.69,0,0,0-4.45606-1.76465,44.79585,44.79585,0,0,1-4.73535-1.84082,19.216,19.216,0,0,1-3.97363-2.39941,10.377,10.377,0,0,1-2.7168-3.19922,8.8203,8.8203,0,0,1-.99023-4.26562,8.71022,8.71022,0,0,1,1.77734-5.44629,11.60321,11.60321,0,0,1,4.88769-3.61817,18.39509,18.39509,0,0,1,7.12207-1.29492,16.69959,16.69959,0,0,1,7.18555,1.44727,11.282,11.282,0,0,1,4.76074,4.02441,10.616,10.616,0,0,1,1.68848,5.9541h-7.94727a5.42467,5.42467,0,0,0-.63476-2.65332,4.35653,4.35653,0,0,0-1.917-1.80273,7.22165,7.22165,0,0,0-3.2627-.64746,7.90311,7.90311,0,0,0-3.17383.55859,4.30745,4.30745,0,0,0-1.8916,1.47266,3.56914,3.56914,0,0,0-.62207,2.05664,2.93684,2.93684,0,0,0,.83789,2.082,7.96039,7.96039,0,0,0,2.4375,1.63769,30.88873,30.88873,0,0,0,3.88477,1.46,30.00864,30.00864,0,0,1,6.77929,2.86914,11.93353,11.93353,0,0,1,4.126,3.89747,9.93981,9.93981,0,0,1,1.38379,5.31933,9.26511,9.26511,0,0,1-1.66309,5.56055,10.37829,10.37829,0,0,1-4.68457,3.52929,18.94085,18.94085,0,0,1-7.10937,1.21876,20.88912,20.88912,0,0,1-5.47168-.72364,15.48958,15.48958,0,0,1-4.84961-2.23437,11.36674,11.36674,0,0,1-3.46582-3.82129,11.04141,11.04141,0,0,1-1.29492-5.48438h7.998a6.92226,6.92226,0,0,0,.49512,2.78028,4.59691,4.59691,0,0,0,1.42188,1.84082,5.9207,5.9207,0,0,0,2.23437,1.02832,12.4436,12.4436,0,0,0,2.93262.31738,7.923,7.923,0,0,0,3.11035-.52051,3.89192,3.89192,0,0,0,1.79-1.42187A3.62855,3.62855,0,0,0,359.99609,259.41406Z" transform="translate(-97.83789 -231.6875)"/><path class="cls-1" d="M378.42969,269.16406h-8.50586l13.73633-36.96875H389.043l-.76172,7.00781Zm17.67187-7.36328H376.5v-6.44922h19.60156Zm-9.623-22.59766-.8379-7.00781h5.40821l13.8125,36.96875h-8.50586Z" transform="translate(-97.83789 -231.6875)"/></svg>