<svg id="SSA_LOGO_not_transparent_stroke" data-name="SSA_LOGO_not transparent stroke" xmlns="http://www.w3.org/2000/svg" viewBox="0 0 1904.08408 3160.60012"><defs><style>.cls-1{fill:#fff;stroke:#000;stroke-miterlimit:10;stroke-width:37px;}</style></defs><g id="Layer_8_copy_14" data-name="Layer 8 copy 14"><path class="cls-1" d="M2553.011,2556.37888q-26.3388,1.46587-53.49983,1.46557-27.38008,0-53.75655-.69419L2499.51115,2395.88Z" transform="translate(-1547.46917 -919.69994)"/><path class="cls-1" d="M2953.39736,2427.06459a591.17139,591.17139,0,0,1-89.6978,53.08841l-25.96536-71.95846C2877.11939,2413.05319,2915.811,2419.24906,2953.39736,2427.06459Z" transform="translate(-1547.46917 -919.69994)"/><path class="cls-1" d="M1886.56588,3213.38911l-113.504,308.06687C1637.01191,3466.46484,1574,3413.94226,1574,3413.94226l161.96445-277.65335s27.097,19.71833,81.31614,46.27556C1836.84514,3192.15374,1859.93145,3202.61734,1886.56588,3213.38911Z" transform="translate(-1547.46917 -919.69994)"/><path class="cls-1" d="M3425.02229,2951.18668c0,82.88464-15.65679,160.39658-45.04159,231.37779-39.41155,95.353-103.52876,178.906-187.57016,247.83107-82.29339,67.48518-183.68813,120.93355-299.66009,157.6713-117.64278,37.22607-250.299,57.2532-393.2393,57.2532-154.45773,0-287.8596-13.16312-401.46595-33.19026l107.05052-312.95126c86.25262,13.57487,184.38231,22.21262,294.41543,22.21262,105.84228,0,202.7129-16.968,286.36892-45.76151,192.71189-66.30269,315.21332-195.36,315.21332-324.443,0-25.81157-3.72763-48.84642-10.849-69.41333-14.91114-43.21638-44.73342-75.50659-85.96955-99.72393,112.75775-50.826,207.21128-119.67386,277.85858-203.2781,75.892,70.95579,126.79521,168.59717,139.67526,303.002Q3425.00974,2914.93787,3425.02229,2951.18668Z" transform="translate(-1547.46917 -919.69994)"/><path class="cls-1" d="M3425.02229,2187.64c0,150.36983-51.57169,283.07783-142.88884,391.13133-70.6473,83.60424-165.10083,152.45206-277.85858,203.2781q-13.53564,6.09326-27.43155,11.852c-95.019,39.35946-202.121,66.37989-318.24739,79.25932a1446.81742,1446.81742,0,0,1-159.08478,8.61265c-56.19875,0-109.622-1.748-160.31875-4.93586l57.38124-172.11955,49.181-147.56768q26.37646.69387,53.75655.69419,27.14847,0,53.49983-1.46557c118.72234-6.52978,224.51378-34.578,310.68858-76.22588a591.17139,591.17139,0,0,0,89.6978-53.08841c93.3225-67.434,147.696-153.42932,147.696-239.4246,0-21.2611-2.5194-40.61978-7.40379-58.28161,110.64947,42.29091,169.36824,81.41939,169.36824,81.41939l130.67723-223.99942C3413.96745,2044.10843,3425.02229,2110.59126,3425.02229,2187.64Z" transform="translate(-1547.46917 -919.69994)"/><path class="cls-1" d="M2120.89991,2520.18122l-59.56672,165.12657L2008.91291,2830.69C1708.55926,2762.537,1574,2650.39556,1574,2650.39556l81.008-138.8524,80.95649-138.80094S1864.27606,2466.06472,2120.89991,2520.18122Z" transform="translate(-1547.46917 -919.69994)"/><path class="cls-1" d="M3425.02229,1933.12442l-31.28722,53.65393-130.67723,223.99942s-58.71877-39.12848-169.36824-81.41939c-93.91375-35.88916-225.23369-74.015-389.84621-92.42244a1832.74909,1832.74909,0,0,0-204.33224-11.2604s-91.23995-3.90777-202.6357,6.50436c-174.66437,16.35066-398.94655,67.8963-398.94655,224.87342,0,92.55112,110.23836,120.16218,271.48352,128.59469l-48.51251,134.53321c-256.62385-54.1165-384.93546-147.439-384.93546-147.439L1655.008,2511.54316C1603.77081,2449.431,1574,2366.90631,1574,2257.05332c0-175.20446,64.554-314.26242,213.07293-409.3844,135.12478-86.58685,339.79156-136.79559,628.57632-144.79125q40.79993-1.11847,83.8619-1.131,42.88247,0,84.0414,1.64539c371.00158,14.52544,636.16087,122.11605,761.00156,184.768C3397.334,1914.66579,3425.02229,1933.12442,3425.02229,1933.12442Z" transform="translate(-1547.46917 -919.69994)"/><path class="cls-1" d="M3344.55411,1888.16c-124.84069-62.65195-390-170.24256-761.00156-184.768l-27.50812-76.25192C2863.98263,1632.69326,3195.62412,1666.44872,3344.55411,1888.16Z" transform="translate(-1547.46917 -919.69994)"/><path class="cls-1" d="M3425.02229,1169.57773l-161.96445,277.65334s-277.65334-185.10223-763.54669-185.10223c0,0-599.01138-25.70864-599.01138,231.37779,0,138.7752,247.39422,131.52519,542.86347,132.55391l-27.714,76.81713c-288.78476,7.99566-493.45154,58.2044-628.57632,144.79125-127.41156-63.19205-210.50207-170.4999-210.50207-354.16229,0-349.63754,254.51557-555.30669,922.94029-555.30669C3077.95561,938.19994,3425.02229,1169.57773,3425.02229,1169.57773Z" transform="translate(-1547.46917 -919.69994)"/><path class="cls-1" d="M2583.55255,1703.392q-41.14638-1.61982-84.0414-1.64539-43.07454,0-83.8619,1.131l27.714-76.81713,56.14791-155.69169,56.53328,156.77126Z" transform="translate(-1547.46917 -919.69994)"/><path class="cls-1" d="M3101.09339,2951.18668c0,129.083-122.50143,258.14026-315.21332,324.443l-31.85336-93.06516H2244.99558l-39.89986,116.61405L2098.0452,3612.12978l-153.84074,449.67028H1574L1773.06185,3521.456l113.504-308.06687,11.363-30.82464h-80.64831c-54.21913-26.55723-81.31614-46.27556-81.31614-46.27556l-26.99407,46.27556H1574V2881.77335h416.48l18.43289-51.08338,52.42028-145.38218,59.56672-165.12657,48.51251-134.53321,127.463-353.46811c111.39575-10.41213,202.6357-6.50436,202.6357-6.50436a1832.74909,1832.74909,0,0,1,204.33224,11.2604l133.89081,371.2586,25.96536,71.95846c-86.1748,41.64788-191.96624,69.6961-310.68858,76.22588L2499.51115,2395.88l-53.75655,161.27026-49.181,147.56768-57.38124,172.11955-1.64571,4.93586H2661.4756l-2.87967-8.61265c116.12636-12.87943,223.22834-39.89986,318.24739-79.25932l31.699,87.872h81.70214C3097.36576,2902.34026,3101.09339,2925.37511,3101.09339,2951.18668Z" transform="translate(-1547.46917 -919.69994)"/><path class="cls-1" d="M2499.51115,2881.77335H2337.54669l1.64571-4.93586C2389.88914,2880.02534,2443.3124,2881.77335,2499.51115,2881.77335Z" transform="translate(-1547.46917 -919.69994)"/><path class="cls-1" d="M2553.011,2556.37888q-26.3388,1.46587-53.49983,1.46557-27.38008,0-53.75655-.69419L2499.51115,2395.88Z" transform="translate(-1547.46917 -919.69994)"/><path class="cls-1" d="M2661.4756,2881.77335H2499.51115a1446.81742,1446.81742,0,0,0,159.08478-8.61265Z" transform="translate(-1547.46917 -919.69994)"/><path class="cls-1" d="M3192.41054,3430.39554l232.61175,631.40452H3054.81783l-162.06738-473.73322C3008.72241,3551.32909,3110.11715,3497.88072,3192.41054,3430.39554Z" transform="translate(-1547.46917 -919.69994)"/><path class="cls-1" d="M3425.02229,2881.77335v69.41333q0-36.2488-3.21358-69.41333Z" transform="translate(-1547.46917 -919.69994)"/><path class="cls-1" d="M3379.9807,3182.56447c29.3848-70.98121,45.04159-148.49315,45.04159-231.37779v231.37779Z" transform="translate(-1547.46917 -919.69994)"/><path class="cls-1" d="M2499.51115,2881.77335H2337.54669l1.64571-4.93586C2389.88914,2880.02534,2443.3124,2881.77335,2499.51115,2881.77335Z" transform="translate(-1547.46917 -919.69994)"/><path class="cls-1" d="M2553.011,2556.37888q-26.3388,1.46587-53.49983,1.46557-27.38008,0-53.75655-.69419L2499.51115,2395.88Z" transform="translate(-1547.46917 -919.69994)"/><path class="cls-1" d="M2661.4756,2881.77335H2499.51115a1446.81742,1446.81742,0,0,0,159.08478-8.61265Z" transform="translate(-1547.46917 -919.69994)"/></g></svg>