<svg id="TWITTER" xmlns="http://www.w3.org/2000/svg" viewBox="0 0 403 403"><defs><style>.cls-1{fill:none;stroke-width:15px;}.cls-1,.cls-2{stroke:#fff;stroke-miterlimit:10;}.cls-2{fill:#fff;}</style></defs><g id="Layer_22" data-name="Layer 22"><rect class="cls-1" x="7.5" y="7.5" width="388" height="388" rx="80.01913"/><path class="cls-2" d="M122.5,335.5c77,47,145.2259,16.6206,170,0,79-53,72-141,72-141,19-13,27-28,27-28-7,5-32,9-32,9,20-12,25-31,25-31-8,7-35,13-35,13-27.34655-24.35552-57.7131-19.66-74-6-31,26-21,57-21,57-73-4-115-58-115-58-23,48,18,74,18,74-7,1-25-6-25-6,0,48,45,54,45,54-1,2-25,2-25,2,12,39,51,38,51,38C162.5,342.5,122.5,335.5,122.5,335.5Z" transform="translate(-48.5 -48.5)"/></g></svg>